<?xml version="1.0" encoding="UTF-8" standalone="no"?>
<svg
   width="100%"
   height="100%"
   viewBox="0 0 116 36"
   version="1.1"
   xml:space="preserve"
   style="fill-rule:evenodd;clip-rule:evenodd;stroke-linejoin:round;stroke-miterlimit:2;"
   id="svg61"
   sodipodi:docname="logo wbuy loja.svg"
   inkscape:version="1.2 (dc2aedaf03, 2022-05-15)"
   xmlns:inkscape="http://www.inkscape.org/namespaces/inkscape"
   xmlns:sodipodi="http://sodipodi.sourceforge.net/DTD/sodipodi-0.dtd"
   xmlns="http://www.w3.org/2000/svg"
   xmlns:svg="http://www.w3.org/2000/svg"><defs
     id="defs65" /><sodipodi:namedview
     id="namedview63"
     pagecolor="#ffffff"
     bordercolor="#999999"
     borderopacity="1"
     inkscape:pageshadow="0"
     inkscape:pageopacity="0"
     inkscape:pagecheckerboard="0"
     showgrid="false"
     inkscape:zoom="5.4310345"
     inkscape:cx="63.247619"
     inkscape:cy="17.860317"
     inkscape:current-layer="g28"
     inkscape:showpageshadow="2"
     inkscape:deskcolor="#d1d1d1"
     inkscape:window-width="1360"
     inkscape:window-height="697"
     inkscape:window-x="-8"
     inkscape:window-y="-8"
     inkscape:window-maximized="1" /><g
     id="g28"><g
       id="g10"
       style="fill:#666666"><path
         d="M30.329,3.781l0.832,-0l0,7.522l3.204,0l-0,0.804l-4.036,-0l0,-8.326Z"
         style="fill:#666666;fill-rule:nonzero"
         id="path2" /><path
         d="M38.468,5.79c0.949,0 1.736,0.344 2.359,1.03c0.567,0.627 0.851,1.368 0.851,2.225c-0,0.86 -0.3,1.612 -0.899,2.255c-0.599,0.644 -1.369,0.965 -2.311,0.965c-0.945,0 -1.717,-0.321 -2.316,-0.965c-0.599,-0.643 -0.898,-1.395 -0.898,-2.255c-0,-0.853 0.283,-1.593 0.85,-2.219c0.624,-0.69 1.412,-1.036 2.364,-1.036Zm-0.002,0.776c-0.659,-0 -1.225,0.243 -1.699,0.73c-0.473,0.487 -0.71,1.075 -0.71,1.766c0,0.445 0.108,0.86 0.324,1.245c0.216,0.385 0.507,0.682 0.875,0.892c0.367,0.209 0.77,0.314 1.21,0.314c0.439,-0 0.842,-0.105 1.21,-0.314c0.367,-0.21 0.658,-0.507 0.874,-0.892c0.216,-0.385 0.324,-0.8 0.324,-1.245c0,-0.691 -0.238,-1.279 -0.713,-1.766c-0.475,-0.487 -1.04,-0.73 -1.695,-0.73Z"
         style="fill:#666666;fill-rule:nonzero"
         id="path4" /><path
         d="M43.438,3.413c0.181,-0 0.335,0.064 0.461,0.192c0.127,0.129 0.19,0.283 0.19,0.465c0,0.177 -0.063,0.33 -0.19,0.458c-0.126,0.128 -0.28,0.192 -0.461,0.192c-0.181,0 -0.335,-0.064 -0.461,-0.192c-0.127,-0.128 -0.19,-0.281 -0.19,-0.458c0,-0.182 0.063,-0.336 0.19,-0.465c0.126,-0.128 0.28,-0.192 0.461,-0.192Zm-0.39,2.536l0.803,-0l0,7.086c0,0.517 -0.093,0.894 -0.28,1.129c-0.187,0.236 -0.442,0.354 -0.767,0.354c-0.268,0 -0.57,-0.064 -0.905,-0.192l-0,-0.713c0.211,0.109 0.401,0.164 0.571,0.164c0.215,-0 0.376,-0.089 0.481,-0.266c0.064,-0.113 0.097,-0.349 0.097,-0.708l-0,-6.854Z"
         style="fill:#666666;fill-rule:nonzero"
         id="path6" /><path
         d="M51.634,5.949l-0,6.158l-0.781,0l-0,-1.058c-0.332,0.403 -0.705,0.707 -1.118,0.911c-0.413,0.204 -0.865,0.305 -1.356,0.305c-0.871,0 -1.616,-0.316 -2.233,-0.948c-0.616,-0.632 -0.925,-1.4 -0.925,-2.306c0,-0.887 0.311,-1.645 0.934,-2.275c0.623,-0.631 1.372,-0.946 2.247,-0.946c0.506,0 0.963,0.108 1.373,0.323c0.409,0.215 0.768,0.538 1.078,0.968l-0,-1.132l0.781,-0Zm-3.167,0.605c-0.441,0 -0.848,0.109 -1.221,0.325c-0.373,0.217 -0.67,0.522 -0.89,0.914c-0.221,0.392 -0.331,0.806 -0.331,1.243c-0,0.434 0.111,0.848 0.333,1.244c0.223,0.396 0.521,0.704 0.896,0.925c0.375,0.22 0.778,0.33 1.207,0.33c0.434,0 0.845,-0.109 1.233,-0.328c0.388,-0.218 0.687,-0.514 0.896,-0.887c0.209,-0.373 0.314,-0.794 0.314,-1.261c-0,-0.712 -0.235,-1.308 -0.704,-1.787c-0.469,-0.478 -1.047,-0.718 -1.733,-0.718Z"
         style="fill:#666666;fill-rule:nonzero"
         id="path8" /></g><g
       id="g26"
       style="fill:#333333"><path
         d="M27.602,33.498l-0,-5.707l-5.516,-9.67l2.698,-0l4.107,7.473l4.107,-7.473l2.698,-0l-5.516,9.67l0,5.707l-2.578,0Z"
         style="fill:#333333;fill-rule:nonzero"
         id="path12" /><path
         d="M41.38,33.737c-2.038,-0 -3.53,-0.51 -4.478,-1.528c-0.947,-1.019 -1.42,-2.476 -1.42,-4.37c-0,-1.894 0.477,-3.351 1.432,-4.37c0.956,-1.019 2.444,-1.528 4.466,-1.528c2.037,0 3.534,0.509 4.489,1.528c0.955,1.019 1.432,2.476 1.432,4.37c0,1.894 -0.473,3.351 -1.42,4.37c-0.948,1.018 -2.448,1.528 -4.501,1.528Zm-0,-2.197c1.194,0 2.041,-0.291 2.543,-0.872c0.501,-0.581 0.752,-1.524 0.752,-2.829c-0,-1.305 -0.251,-2.245 -0.752,-2.818c-0.502,-0.573 -1.349,-0.859 -2.543,-0.859c-1.178,-0 -2.018,0.286 -2.52,0.859c-0.501,0.573 -0.752,1.513 -0.752,2.818c0,1.305 0.251,2.248 0.752,2.829c0.502,0.581 1.342,0.872 2.52,0.872Z"
         style="fill:#333333;fill-rule:nonzero"
         id="path14" /><path
         d="M49.832,33.498l0,-16.094l2.603,0l0,5.874c0.494,-0.398 1.083,-0.72 1.767,-0.967c0.685,-0.247 1.457,-0.37 2.316,-0.37c1.433,0 2.492,0.342 3.176,1.027c0.685,0.684 1.027,1.751 1.027,3.199l-0,7.331l-2.579,-0l-0,-7.211c-0,-0.876 -0.187,-1.489 -0.561,-1.839c-0.374,-0.35 -1.023,-0.525 -1.946,-0.525c-0.573,-0 -1.154,0.123 -1.743,0.37c-0.589,0.247 -1.075,0.569 -1.457,0.967l0,8.238l-2.603,-0Z"
         style="fill:#333333;fill-rule:nonzero"
         id="path16" /><path
         d="M66.81,33.737c-0.717,-0 -1.381,-0.128 -1.994,-0.382c-0.613,-0.255 -1.102,-0.641 -1.469,-1.158c-0.366,-0.518 -0.549,-1.158 -0.549,-1.923c0,-1.082 0.37,-1.954 1.111,-2.614c0.74,-0.661 1.882,-0.991 3.426,-0.991l3.629,-0l0,-0.502c0,-0.541 -0.083,-0.971 -0.25,-1.289c-0.167,-0.318 -0.47,-0.549 -0.908,-0.692c-0.437,-0.144 -1.078,-0.215 -1.922,-0.215c-1.337,-0 -2.587,0.199 -3.749,0.597l0,-1.934c0.51,-0.207 1.131,-0.375 1.863,-0.502c0.732,-0.127 1.52,-0.191 2.364,-0.191c1.655,0 2.917,0.334 3.784,1.003c0.868,0.669 1.302,1.759 1.302,3.271l-0,7.283l-2.221,-0l-0.167,-1.146c-0.462,0.446 -1.031,0.788 -1.707,1.027c-0.677,0.238 -1.525,0.358 -2.543,0.358Zm0.692,-1.863c0.78,0 1.461,-0.131 2.042,-0.394c0.581,-0.262 1.054,-0.617 1.42,-1.062l0,-1.982l-3.581,-0c-0.764,-0 -1.318,0.147 -1.66,0.442c-0.342,0.294 -0.513,0.744 -0.513,1.349c-0,0.589 0.199,1.011 0.597,1.265c0.398,0.255 0.963,0.382 1.695,0.382Z"
         style="fill:#333333;fill-rule:nonzero"
         id="path18" /><path
         d="M76.337,33.498l0,-11.318l2.388,-0l0.119,1.194c0.51,-0.398 1.118,-0.737 1.827,-1.015c0.708,-0.279 1.492,-0.418 2.352,-0.418c1.464,0 2.531,0.342 3.2,1.027c0.668,0.684 1.002,1.751 1.002,3.199l0,7.331l-2.578,-0l-0,-7.211c-0,-0.876 -0.18,-1.489 -0.538,-1.839c-0.358,-0.35 -1.03,-0.525 -2.017,-0.525c-0.589,-0 -1.166,0.119 -1.732,0.358c-0.565,0.239 -1.038,0.549 -1.42,0.931l-0,8.286l-2.603,-0Z"
         style="fill:#333333;fill-rule:nonzero"
         id="path20" /><path
         d="M90.138,33.498l0,-11.318l2.388,-0l0.12,1.194c0.509,-0.398 1.118,-0.737 1.826,-1.015c0.709,-0.279 1.493,-0.418 2.352,-0.418c1.465,0 2.531,0.342 3.2,1.027c0.669,0.684 1.003,1.751 1.003,3.199l-0,7.331l-2.579,-0l0,-7.211c0,-0.876 -0.179,-1.489 -0.537,-1.839c-0.358,-0.35 -1.031,-0.525 -2.018,-0.525c-0.589,-0 -1.166,0.119 -1.731,0.358c-0.565,0.239 -1.039,0.549 -1.421,0.931l0,8.286l-2.603,-0Z"
         style="fill:#333333;fill-rule:nonzero"
         id="path22" /><path
         d="M107.115,33.737c-0.716,-0 -1.381,-0.128 -1.994,-0.382c-0.612,-0.255 -1.102,-0.641 -1.468,-1.158c-0.366,-0.518 -0.549,-1.158 -0.549,-1.923c-0,-1.082 0.37,-1.954 1.11,-2.614c0.74,-0.661 1.882,-0.991 3.427,-0.991l3.629,-0l0,-0.502c0,-0.541 -0.084,-0.971 -0.251,-1.289c-0.167,-0.318 -0.469,-0.549 -0.907,-0.692c-0.438,-0.144 -1.079,-0.215 -1.922,-0.215c-1.337,-0 -2.587,0.199 -3.749,0.597l-0,-1.934c0.509,-0.207 1.13,-0.375 1.862,-0.502c0.733,-0.127 1.521,-0.191 2.364,-0.191c1.656,0 2.917,0.334 3.785,1.003c0.868,0.669 1.301,1.759 1.301,3.271l0,7.283l-2.22,-0l-0.167,-1.146c-0.462,0.446 -1.031,0.788 -1.708,1.027c-0.676,0.238 -1.524,0.358 -2.543,0.358Zm0.693,-1.863c0.78,0 1.46,-0.131 2.041,-0.394c0.581,-0.262 1.055,-0.617 1.421,-1.062l0,-1.982l-3.582,-0c-0.764,-0 -1.317,0.147 -1.659,0.442c-0.342,0.294 -0.514,0.744 -0.514,1.349c0,0.589 0.199,1.011 0.597,1.265c0.398,0.255 0.963,0.382 1.696,0.382Z"
         style="fill:#333333;fill-rule:nonzero"
         id="path24" /></g></g><g
     id="g59"><g
       id="g835"><g
         id="g275"><path
           id="path102"
           d="M13.943,30.394c0.015,-0.002 0.029,0.003 0.053,0.016c0.029,0.016 0.115,0.094 0.191,0.174c0.376,0.395 0.564,0.862 0.567,1.401c0.002,0.344 -0.059,0.608 -0.208,0.907c-0.105,0.21 -0.288,0.463 -0.336,0.463c-0.009,0 -0.061,-0.038 -0.116,-0.085c-0.327,-0.281 -0.567,-0.691 -0.655,-1.119c-0.039,-0.191 -0.045,-0.566 -0.011,-0.752c0.065,-0.356 0.273,-0.792 0.462,-0.967c0.024,-0.023 0.039,-0.035 0.053,-0.038Z"
           style="fill:#6b2691;fill-rule:nonzero;" /><path
           id="path100"
           d="M10.833,28.972c0.059,0.01 0.42,0.338 0.655,0.593c1.118,1.22 1.693,2.826 1.59,4.437c-0.024,0.38 -0.031,0.425 -0.068,0.424c-0.014,0 -0.128,-0.092 -0.255,-0.205c-1.326,-1.18 -2.055,-2.888 -1.999,-4.676c0.016,-0.498 0.027,-0.582 0.077,-0.573Z"
           style="fill:#765cd0;fill-rule:nonzero;" /><path
           id="path98"
           d="M6.739,27.805c0.073,-0.006 0.475,0.148 0.813,0.313c1.163,0.57 2.126,1.518 2.717,2.675c0.4,0.783 0.612,1.594 0.657,2.511c0.015,0.306 -0.02,0.938 -0.056,1.004c-0.023,0.043 -0.018,0.044 -0.306,-0.06c-0.309,-0.112 -0.871,-0.398 -1.175,-0.599c-0.459,-0.303 -0.866,-0.65 -1.189,-1.018c-0.848,-0.963 -1.339,-2.046 -1.502,-3.306c-0.06,-0.46 -0.039,-1.447 0.031,-1.517c0.002,-0.002 0.005,-0.003 0.01,-0.004l0,0.001Z"
           style="fill:#a492e0;fill-rule:nonzero;" /><path
           id="path96"
           d="M16.668,27.015c0.061,-0.012 0.409,0.168 0.587,0.302c0.44,0.333 0.722,0.831 0.789,1.393c0.04,0.336 -0.027,0.814 -0.115,0.814c-0.018,0 -0.11,-0.036 -0.205,-0.08c-0.584,-0.274 -0.988,-0.777 -1.135,-1.413c-0.077,-0.335 -0.025,-0.997 0.079,-1.016Z"
           style="fill:#db24a9;fill-rule:nonzero;" /><path
           id="path94"
           d="M13.176,25.61c0.05,0 0.436,0.215 0.7,0.389c1.028,0.68 1.827,1.657 2.282,2.792c0.33,0.821 0.475,1.712 0.423,2.587c-0.023,0.381 -0.029,0.412 -0.079,0.412c-0.019,-0 -0.137,-0.057 -0.261,-0.125c-1.445,-0.8 -2.488,-2.108 -2.927,-3.669c-0.166,-0.588 -0.224,-1.084 -0.209,-1.778c0.006,-0.283 0.017,-0.536 0.025,-0.561c0.008,-0.026 0.029,-0.047 0.046,-0.047Z"
           style="fill:#9739ca;fill-rule:nonzero;" /><path
           id="path92"
           d="M16.915,23c0.108,-0.005 0.495,0.152 0.69,0.284c0.433,0.293 0.746,0.746 0.858,1.245c0.039,0.173 0.066,0.5 0.047,0.574c-0.018,0.073 -0.088,0.071 -0.302,-0.007c-0.628,-0.229 -1.102,-0.745 -1.277,-1.391c-0.061,-0.223 -0.083,-0.683 -0.034,-0.702c0.004,-0.002 0.01,-0.003 0.018,-0.003Z"
           style="fill:#ce2342;fill-rule:nonzero;" /><path
           id="path90"
           d="M1.599,22.697c0.037,-0.01 0.137,0.112 0.482,0.524c1.88,2.241 3.348,4.737 4.397,7.477c0.288,0.753 0.683,1.988 0.85,2.657c0.024,0.097 0.049,0.192 0.054,0.212c0.028,0.091 -0.067,0.014 -0.306,-0.248c-2.456,-2.696 -4.323,-5.878 -5.476,-9.336c-0.133,-0.399 -0.147,-0.454 -0.136,-0.556c0.007,-0.062 0.017,-0.169 0.024,-0.237c0.009,-0.083 0.003,-0.164 -0.019,-0.246c-0.034,-0.128 -0.03,-0.16 0.011,-0.118c0.044,0.043 0.076,0.026 0.09,-0.048c0.008,-0.044 0.012,-0.076 0.029,-0.081Z"
           style="fill:#c4b9eb;fill-rule:nonzero;" /><path
           id="path88"
           d="M10.414,22.523c0.074,0 0.157,0.001 0.251,0.003c0.601,0.012 1.034,0.051 1.542,0.137c1.774,0.303 3.445,1.089 4.838,2.276c0.266,0.227 0.764,0.723 1.022,1.016c0.238,0.272 0.595,0.731 0.595,0.765c0,0.011 -0.034,0.025 -0.077,0.03c-0.141,0.018 -0.99,-0.007 -1.319,-0.039c-2.709,-0.259 -5.179,-1.591 -6.883,-3.713c-0.24,-0.298 -0.336,-0.438 -0.32,-0.464c0.006,-0.009 0.131,-0.013 0.351,-0.011Z"
           style="fill:#e562c2;fill-rule:nonzero;" /><path
           id="path86"
           d="M2.915,20.448c0.214,-0.003 0.42,0 0.641,0.012c1.511,0.079 2.81,0.423 4.113,1.09c1.739,0.89 3.175,2.255 4.142,3.937c0.459,0.798 0.791,1.612 1.019,2.497c0.121,0.472 0.158,0.675 0.124,0.696c-0.027,0.016 -0.176,0.033 -0.577,0.063c-0.319,0.023 -1.241,0.005 -1.607,-0.032c-3.75,-0.38 -6.971,-2.81 -8.356,-6.304c-0.209,-0.528 -0.481,-1.457 -0.518,-1.771c-0.016,-0.132 -0.033,-0.124 0.332,-0.153c0.252,-0.02 0.473,-0.031 0.687,-0.035Z"
           style="fill:#ae65d5;fill-rule:nonzero;" /><path
           id="path84"
           d="M13.346,19.709c0.552,0 0.693,0.011 1.136,0.094c1.168,0.216 2.257,0.795 3.121,1.656c0.344,0.343 0.538,0.583 0.499,0.62c-0.015,0.014 -0.12,0.06 -0.233,0.102c-0.571,0.214 -1.16,0.342 -1.748,0.379c-0.371,0.024 -0.387,0.024 -0.755,0c-1.505,-0.095 -2.852,-0.708 -3.936,-1.791c-0.285,-0.284 -0.503,-0.541 -0.491,-0.579c0.019,-0.057 0.678,-0.267 1.114,-0.355c0.523,-0.106 0.714,-0.125 1.293,-0.126Z"
           style="fill:#e04964;fill-rule:nonzero;" /><path
           id="path82"
           d="M8.111,19.537c0.484,0.002 1.018,0.019 1.35,0.047c0.669,0.057 1.467,0.169 1.459,0.206c-0.005,0.024 -0.088,0.05 -0.544,0.165c-0.981,0.247 -1.958,0.398 -2.996,0.462c-0.393,0.025 -1.43,0.026 -1.834,0.002c-0.193,-0.011 -0.513,-0.035 -0.711,-0.053c-0.379,-0.034 -1.171,-0.142 -1.191,-0.162c-0.03,-0.03 0.06,-0.064 0.391,-0.149c1.032,-0.265 2.197,-0.441 3.314,-0.503c0.2,-0.011 0.472,-0.015 0.762,-0.015Z"
           style="fill:#ed8ed2;fill-rule:nonzero;" /><path
           id="path80"
           d="M7.782,18.312c0.535,0 1.071,0.008 1.35,0.024c0.757,0.044 1.85,0.146 1.879,0.175c0.023,0.023 -0.09,0.05 -0.664,0.164c-2.113,0.419 -4.212,0.571 -6.439,0.466c-0.759,-0.036 -1.853,-0.129 -1.915,-0.163c-0.053,-0.029 0.037,-0.056 0.473,-0.142c1.318,-0.26 2.566,-0.417 3.976,-0.5c0.273,-0.016 0.805,-0.024 1.34,-0.024Z"
           style="fill:#ec8ea0;fill-rule:nonzero;" /><path
           id="path78"
           d="M16.066,16.892c0.429,-0.002 0.797,0.113 1.164,0.362c0.274,0.186 0.56,0.541 0.691,0.859c0.1,0.241 0.099,0.264 -0.003,0.415c-0.439,0.65 -1.218,0.98 -2.009,0.851c-0.19,-0.03 -0.484,-0.123 -0.636,-0.201c-0.307,-0.155 -0.587,-0.421 -0.759,-0.719c-0.062,-0.107 -0.179,-0.453 -0.179,-0.528c0,-0.138 0.389,-0.564 0.68,-0.742c0.333,-0.205 0.657,-0.296 1.051,-0.297Z"
           style="fill:#c76262;fill-rule:nonzero;" /><path
           id="path76"
           d="M19.178,15.693c0.401,-0.002 0.51,0.018 0.814,0.147c0.177,0.075 0.436,0.24 0.472,0.301c0.019,0.032 0.004,0.055 -0.097,0.149c-0.291,0.273 -0.689,0.466 -1.097,0.532c-0.146,0.023 -0.62,-0.004 -0.775,-0.045c-0.087,-0.023 -0.225,-0.071 -0.307,-0.106c-0.171,-0.072 -0.466,-0.26 -0.485,-0.308c-0.008,-0.022 0.027,-0.069 0.115,-0.15c0.23,-0.213 0.5,-0.366 0.815,-0.462c0.17,-0.052 0.213,-0.057 0.545,-0.058Z"
           style="fill:#bd4242;fill-rule:nonzero;" /><path
           id="path74"
           d="M14.904,14.161c1.381,-0.007 2.968,0.113 4.263,0.327c0.354,0.058 0.353,0.058 0.318,0.091c-0.1,0.094 -1.534,0.822 -2.213,1.122c-3.657,1.616 -7.634,2.382 -11.561,2.226c-1.085,-0.044 -2.197,-0.149 -3.184,-0.301c-0.187,-0.029 -0.343,-0.056 -0.348,-0.06c-0.041,-0.042 0.104,-0.129 0.822,-0.492c3.737,-1.889 7.509,-2.833 11.63,-2.909c0.09,-0.002 0.181,-0.003 0.273,-0.004l0.001,0l-0.001,0Z"
           style="fill:#d58888;fill-rule:nonzero;" /><path
           id="path72"
           d="M20.578,12.514c0.319,0.009 0.635,0.094 0.92,0.253c0.165,0.092 0.167,0.117 0.027,0.321c-0.328,0.48 -0.825,0.791 -1.411,0.883c-0.176,0.028 -0.549,0.008 -0.741,-0.038c-0.174,-0.043 -0.363,-0.118 -0.541,-0.217c-0.078,-0.043 -0.108,-0.072 -0.108,-0.104c0,-0.062 0.184,-0.325 0.337,-0.481c0.184,-0.188 0.347,-0.306 0.58,-0.418c0.297,-0.142 0.618,-0.208 0.937,-0.199Z"
           style="fill:#c0602d;fill-rule:nonzero;" /><path
           id="path70"
           d="M15.922,10.708c0.766,0.002 1.131,0.032 1.75,0.144c0.806,0.147 1.831,0.471 2.422,0.767c0.144,0.072 0.144,0.072 0.062,0.144c-0.045,0.039 -0.21,0.163 -0.367,0.275c-1.442,1.028 -3.126,1.65 -4.927,1.821c-0.403,0.039 -1.608,0.026 -2,-0.02c-0.576,-0.068 -1.108,-0.173 -1.639,-0.323c-0.618,-0.174 -1.597,-0.551 -1.597,-0.615c0,-0.038 0.23,-0.216 0.598,-0.462c1.301,-0.874 2.705,-1.422 4.193,-1.638c0.557,-0.08 0.78,-0.094 1.505,-0.093Z"
           style="fill:#d78052;fill-rule:nonzero;" /><path
           id="path68"
           d="M21.079,9.401c0.219,0.001 0.403,0.027 0.422,0.075c0.036,0.094 -0.188,0.48 -0.422,0.727c-0.277,0.292 -0.597,0.486 -0.944,0.574c-0.09,0.022 -0.182,0.046 -0.205,0.051c-0.081,0.02 -0.701,-0.002 -0.768,-0.027c-0.037,-0.014 -0.067,-0.039 -0.067,-0.055c0,-0.05 0.115,-0.286 0.211,-0.434c0.259,-0.398 0.672,-0.702 1.14,-0.842c0.16,-0.048 0.414,-0.071 0.633,-0.069Z"
           style="fill:#b08221;fill-rule:nonzero;" /><path
           id="path66"
           d="M14.983,7.98c0.259,-0.002 0.433,0.028 0.67,0.113c0.344,0.123 0.702,0.381 0.899,0.649c0.077,0.105 0.077,0.105 0.042,0.252c-0.019,0.081 -0.076,0.234 -0.127,0.341c-0.292,0.613 -0.851,1.027 -1.531,1.135c-0.196,0.031 -0.567,0.008 -0.791,-0.049c-0.236,-0.06 -0.506,-0.182 -0.684,-0.309c-0.153,-0.109 -0.367,-0.334 -0.424,-0.444c-0.04,-0.079 -0.04,-0.08 0.002,-0.229c0.095,-0.343 0.277,-0.647 0.538,-0.897c0.389,-0.372 0.773,-0.538 1.289,-0.559c0.041,-0.001 0.08,-0.002 0.117,-0.003Z"
           style="fill:#deae4b;fill-rule:nonzero;" /><path
           id="path64"
           d="M12.921,7.835c0.023,-0.002 0.033,0.001 0.033,0.008c-0,0.034 -0.352,0.74 -0.525,1.051c-0.784,1.417 -1.67,2.583 -2.826,3.718c-2.025,1.989 -4.455,3.365 -7.272,4.118c-0.265,0.071 -0.34,0.078 -0.34,0.031c-0,-0.048 0.196,-0.449 0.408,-0.837c1.114,-2.028 2.452,-3.636 4.167,-5.007c1.702,-1.361 3.693,-2.374 5.798,-2.951c0.316,-0.087 0.49,-0.128 0.557,-0.131Z"
           style="fill:#e3a585;fill-rule:nonzero;" /><path
           id="path62"
           d="M19.931,7.097c0.266,0.007 0.527,0.05 0.608,0.116c0.061,0.049 0.121,0.312 0.136,0.59c0.054,1.029 -0.691,1.925 -1.736,2.09c-0.175,0.027 -0.568,0.007 -0.76,-0.039c-0.109,-0.026 -0.176,-0.054 -0.2,-0.083c-0.114,-0.141 -0.149,-0.793 -0.062,-1.143c0.189,-0.758 0.799,-1.34 1.57,-1.499c0.124,-0.026 0.285,-0.035 0.444,-0.032Z"
           style="fill:#aca826;fill-rule:nonzero;" /><path
           id="path60"
           d="M22.375,6.169c0.181,0.006 0.363,0.037 0.542,0.093c0.202,0.064 0.362,0.142 0.362,0.178c0,0.014 -0.061,0.088 -0.134,0.164c-0.515,0.53 -1.247,0.741 -1.952,0.562c-0.247,-0.062 -0.47,-0.162 -0.47,-0.21c0,-0.019 0.077,-0.111 0.17,-0.203c0.404,-0.397 0.938,-0.602 1.482,-0.584Z"
           style="fill:#e7e490;fill-rule:nonzero;" /><path
           id="path58"
           d="M18.657,4.977c0.608,0 1.218,0.089 1.804,0.272c0.366,0.115 0.959,0.366 0.993,0.42c0.022,0.036 -0.015,0.07 -0.292,0.278c-0.889,0.668 -1.951,1.076 -3.082,1.186c-0.272,0.026 -1.054,0.008 -1.333,-0.031c-0.13,-0.018 -0.325,-0.051 -0.433,-0.074c-0.665,-0.142 -1.577,-0.468 -1.577,-0.564c0,-0.081 0.552,-0.485 1.011,-0.741c0.884,-0.492 1.894,-0.745 2.909,-0.746Z"
           style="fill:#d9d550;fill-rule:nonzero;" /><path
           id="path56"
           d="M12.704,4.849c0.021,0.001 0.022,0.012 0.014,0.034c-0.063,0.167 -0.647,0.976 -1.002,1.389c-0.253,0.293 -0.785,0.825 -1.07,1.068c-0.76,0.649 -1.723,1.248 -2.617,1.625c-0.199,0.084 -0.268,0.1 -0.268,0.063c0,-0.048 0.318,-0.527 0.589,-0.885c1.04,-1.381 2.506,-2.531 4.065,-3.189c0.172,-0.073 0.256,-0.105 0.289,-0.105Z"
           style="fill:#e8c580;fill-rule:nonzero;" /><path
           id="path54"
           d="M20.62,3.546c0.783,-0 1.472,0.195 2.131,0.604c0.221,0.137 0.322,0.219 0.309,0.252c-0.015,0.04 -0.38,0.242 -0.63,0.349c-0.624,0.266 -1.329,0.373 -1.991,0.301c-0.477,-0.052 -0.931,-0.183 -1.354,-0.39c-0.243,-0.119 -0.581,-0.326 -0.657,-0.403c-0.038,-0.038 -0.038,-0.04 0.027,-0.094c0.037,-0.03 0.179,-0.111 0.317,-0.179c0.626,-0.309 1.174,-0.44 1.848,-0.44Z"
           style="fill:#727272;fill-rule:nonzero;" /><path
           id="path52"
           d="M18.18,2.831c0.231,0 0.4,0.015 0.4,0.046c0,0.036 -0.17,0.303 -0.336,0.528c-0.961,1.303 -2.405,2.169 -4.003,2.4c-0.39,0.056 -0.908,0.083 -1.141,0.058c-0.079,-0.008 -0.133,-0.024 -0.14,-0.041c-0.006,-0.016 0.06,-0.133 0.145,-0.26c0.805,-1.196 1.972,-2.067 3.315,-2.474c0.288,-0.087 0.666,-0.167 0.987,-0.208c0.249,-0.032 0.542,-0.048 0.773,-0.049Z"
           style="fill:#e7e490;fill-rule:nonzero;" /><path
           id="path50"
           d="M21.769,1.574c0.118,0.001 0.23,0.01 0.315,0.027c0.316,0.064 0.653,0.209 0.82,0.354c0.074,0.064 0.074,0.064 0.036,0.123c-0.315,0.492 -0.9,0.851 -1.489,0.913c-0.089,0.009 -0.167,0.018 -0.174,0.02c-0.008,0.001 -0.108,-0.007 -0.222,-0.019c-0.115,-0.012 -0.288,-0.044 -0.385,-0.072c-0.292,-0.085 -0.668,-0.296 -0.668,-0.375c-0,-0.053 0.186,-0.292 0.331,-0.425c0.245,-0.227 0.567,-0.406 0.879,-0.489c0.144,-0.039 0.36,-0.059 0.557,-0.057Z"
           style="fill:#4d4d4d;fill-rule:nonzero;" /></g></g></g></svg>
